<svg id="Layer_1" data-name="Layer 1" xmlns="http://www.w3.org/2000/svg" viewBox="0 0 400 320"><title>icon_www</title><path d="M370,40H30A30,30,0,0,0,0,70V330a30,30,0,0,0,30,30H370a30,30,0,0,0,30-30V70A30,30,0,0,0,370,40ZM160,62.5a15,15,0,1,1-15,15A15,15,0,0,1,160,62.5Zm-50,0a15,15,0,1,1-15,15A15,15,0,0,1,110,62.5Zm-50,0a15,15,0,1,1-15,15A15,15,0,0,1,60,62.5ZM365,305a20,20,0,0,1-20,20H55a20,20,0,0,1-20-20V115H365Z" transform="translate(0 -40)"/><path d="M80.6,186.05l4.89,25.85c1.1,6.44,2.32,13.38,3.3,20.59h.37c1.1-7.08,2.93-14.28,4.27-20.46l6.36-26h14.66l6,25.08c1.71,7.21,3.3,14.15,4.4,21.36h.25c.85-7.08,2.07-14.28,3.54-21.49l5-24.95h18.21L133.52,249H116.16l-5.62-22a194.65,194.65,0,0,1-3.91-19.69h-.24a176.72,176.72,0,0,1-3.79,19.56l-6,22.12H79.14l-17.48-62.9Z" transform="translate(0 -40)"/><path d="M173.85,186.05l4.89,25.85c1.1,6.44,2.32,13.38,3.3,20.59h.36c1.1-7.08,2.94-14.28,4.28-20.46l6.35-26H207.7l6,25.08c1.71,7.21,3.3,14.15,4.4,21.36h.24c.86-7.08,2.08-14.28,3.55-21.49l5-24.95h18.2L226.76,249H209.41l-5.62-22a194.65,194.65,0,0,1-3.91-19.69h-.25a176.92,176.92,0,0,1-3.78,19.56l-6,22.12H172.38l-17.47-62.9Z" transform="translate(0 -40)"/><path d="M267.09,186.05,272,211.9c1.1,6.44,2.32,13.38,3.3,20.59h.37c1.1-7.08,2.93-14.28,4.28-20.46l6.35-26h14.66l6,25.08c1.71,7.21,3.3,14.15,4.4,21.36h.25c.85-7.08,2.07-14.28,3.54-21.49l5-24.95h18.21L320,249H302.66L297,227a200.35,200.35,0,0,1-3.91-19.69h-.24a174.43,174.43,0,0,1-3.79,19.56l-6,22.12H265.63l-17.48-62.9Z" transform="translate(0 -40)"/></svg>