<svg id="Layer_1" data-name="Layer 1" xmlns="http://www.w3.org/2000/svg" viewBox="0 0 400 328.14"><defs><style>.cls-1{fill:#fff;}</style></defs><title>icon_ip2</title><rect x="130" y="94.07" width="140" height="400" rx="30" transform="translate(494.07 58.14) rotate(90)"/><rect class="cls-1" x="165" y="129.07" width="70" height="330" rx="20" transform="translate(494.07 58.14) rotate(90)"/><circle cx="70" cy="258.14" r="15"/><circle cx="120" cy="258.14" r="15"/><circle cx="170" cy="258.14" r="15"/><circle cx="330" cy="258.14" r="15"/><path d="M292.5,88.14h0a15,15,0,0,1,15,15v75a0,0,0,0,1,0,0h-30a0,0,0,0,1,0,0v-75A15,15,0,0,1,292.5,88.14Z"/><circle cx="292.5" cy="65.64" r="12.5"/><path d="M239.73,164.45l-.08.1a7.45,7.45,0,0,1-11,.46,90,90,0,0,1,0-126.88,7.46,7.46,0,0,1,11,.45l.08.11a7.47,7.47,0,0,1-.49,10.08,75,75,0,0,0,0,105.6A7.47,7.47,0,0,1,239.73,164.45Z" transform="translate(0 -35.93)"/><path d="M265.65,133.57l-.09.1a7.41,7.41,0,0,1-11.32.09,50,50,0,0,1,0-64.38,7.41,7.41,0,0,1,11.32.09l.09.1a7.37,7.37,0,0,1,.08,9.45,35,35,0,0,0,0,45.09A7.39,7.39,0,0,1,265.65,133.57Z" transform="translate(0 -35.93)"/><path d="M342.5,101.57a49.78,49.78,0,0,1-11.74,32.19,7.41,7.41,0,0,1-11.32-.09l-.09-.1a7.39,7.39,0,0,1-.08-9.46,35,35,0,0,0,0-45.09,7.37,7.37,0,0,1,.08-9.45l.09-.1a7.41,7.41,0,0,1,11.32-.09A49.78,49.78,0,0,1,342.5,101.57Z" transform="translate(0 -35.93)"/><path d="M382.5,101.57A89.71,89.71,0,0,1,356.34,165a7.45,7.45,0,0,1-11-.46l-.08-.1a7.47,7.47,0,0,1,.49-10.08,75,75,0,0,0,0-105.6,7.47,7.47,0,0,1-.49-10.08l.08-.11a7.46,7.46,0,0,1,11-.45A89.71,89.71,0,0,1,382.5,101.57Z" transform="translate(0 -35.93)"/></svg>