<svg id="Layer_1" data-name="Layer 1" xmlns="http://www.w3.org/2000/svg" xmlns:xlink="http://www.w3.org/1999/xlink"
     viewBox="0 0 498.83 474.61">
    <defs>
        <style>
            .cls-1,.cls-2{fill:none;}.cls-2{stroke:#000;stroke-miterlimit:10;stroke-width:25px;}.cls-3{clip-path:url(#clip-path);}
        </style>
        <clipPath id="clip-path" transform="translate(49.41 37.3)">
            <circle class="cls-1" cx="200" cy="200" r="200"/>
        </clipPath>
    </defs>
    <title>icon_url2</title>
    <path d="M200,35a165.25,165.25,0,1,1-56.42,10A164.58,164.58,0,0,1,200,35m0-35A199.49,199.49,0,0,0,131.6,12.06C27.8,49.84-25.72,164.61,12.06,268.4A199.82,199.82,0,0,0,268.4,387.94C372.2,350.16,425.72,235.39,387.94,131.6A200.08,200.08,0,0,0,200,0Z"
          transform="translate(49.41 37.3)"/>
    <path d="M149.64,33.94c16.91,0,38.72,13.07,59.86,35.85,24.32,26.22,46,63.35,61,104.56a352.26,352.26,0,0,1,18,70.79c3.11,22,3.62,42.42,1.52,60.71-1.93,16.78-6.11,31.16-12.07,41.59-5,8.75-11.08,14.47-18.06,17a27.37,27.37,0,0,1-9.49,1.61c-16.9,0-38.72-13.07-59.85-35.85-24.33-26.22-46-63.35-61-104.56a352.26,352.26,0,0,1-18-70.79c-3.11-22-3.62-42.42-1.52-60.71C112,77.37,116.13,63,122.09,52.56c5-8.75,11.08-14.47,18.06-17a27.37,27.37,0,0,1,9.49-1.61h0m0-25a52.51,52.51,0,0,0-18,3.12C79.7,31,68.25,130.41,106,234.2c33.57,92.24,94.71,156.86,144.33,156.86a52.51,52.51,0,0,0,18-3.12C320.3,369.05,331.75,269.59,294,165.8,260.4,73.56,199.26,8.94,149.64,8.94Z"
          transform="translate(49.41 37.3)"/>
    <circle class="cls-1" cx="249.41" cy="237.3" r="200"/>
    <line class="cls-2" x1="437.35" y1="168.9" x2="61.47" y2="305.71"/>
    <g class="cls-3">
        <path d="M449.41,300.5l-23.49,8.55c-3.15-8.65-9.65-16.16-19.32-22.31-10.87-6.9-25.63-11.95-42.67-14.59-18.45-2.86-39-3-61-.29a329.68,329.68,0,0,0-135.66,49.37c-18.57,12.1-34.22,25.36-46.51,39.42-11.36,13-19.42,26.33-23.31,38.6-3.46,10.93-3.61,20.86-.46,29.5L73.54,437.3c-20.78-57.08,46.51-134,150.31-171.77S428.64,243.41,449.41,300.5Z"
              transform="translate(49.41 37.3)"/>
        <path d="M326.46-37.3c20.78,57.09-46.51,134-150.31,171.77S-28.63,156.6-49.41,99.5L-25.92,91c3.15,8.66,9.65,16.17,19.33,22.32,10.86,6.9,25.62,12,42.66,14.59,18.45,2.86,39,3,61,.29A318.65,318.65,0,0,0,167.6,111a318.57,318.57,0,0,0,65.09-32.19c18.57-12.1,34.22-25.36,46.52-39.42,11.35-13,19.41-26.33,23.3-38.6,3.46-10.93,3.61-20.86.46-29.51Z"
              transform="translate(49.41 37.3)"/>
    </g>
</svg>
